<svg id="Capa_1" data-name="Capa 1" xmlns="http://www.w3.org/2000/svg" viewBox="0 0 20.01 13.27"><defs><style>.cls-1{fill:#4267b2;}</style></defs><path class="cls-1" d="M20.26,7.8a4.82,4.82,0,0,0-3.93-2.44,3.91,3.91,0,0,0-2.54,1.09,10.28,10.28,0,0,0-1.52,1.71,11.07,11.07,0,0,0-1.63-1.72A4.36,4.36,0,0,0,7.76,5.36,5,5,0,0,0,3.7,8,11.46,11.46,0,0,0,2,14a7.56,7.56,0,0,0,.18,1.64A4.43,4.43,0,0,0,2.71,17a3.23,3.23,0,0,0,3,1.6C7,18.6,7.9,18,9,16.6A26.51,26.51,0,0,0,11.22,13l.63-1.12c.06-.09.11-.18.16-.27l.15.25,1.79,3A14.6,14.6,0,0,0,16,17.63a3.38,3.38,0,0,0,2.55,1,3,3,0,0,0,2.54-1.23,1.67,1.67,0,0,0,.18-.28,4.6,4.6,0,0,0,.31-.63l.12-.35A7.35,7.35,0,0,0,22,15a8.34,8.34,0,0,0,0-1A11.15,11.15,0,0,0,20.26,7.8ZM10.14,11.36c-.64,1-1.57,2.51-2.37,3.61-1,1.37-1.51,1.51-2.07,1.51a1.27,1.27,0,0,1-1.15-.66,3.35,3.35,0,0,1-.39-1.7A9.82,9.82,0,0,1,5.54,9,2.8,2.8,0,0,1,7.73,7.53,3,3,0,0,1,10,8.74a14.16,14.16,0,0,1,1,1.31Zm8.42,5.12c-.48,0-.85-.19-1.38-.83A36.05,36.05,0,0,1,14.82,12l-.52-.86c-.36-.61-.71-1.16-1-1.65,0-.09.11-.18.17-.27.94-1.39,1.77-2.17,2.8-2.17a3.11,3.11,0,0,1,2.49,1.66,10.21,10.21,0,0,1,1.37,5.34C20.09,15.36,19.79,16.48,18.56,16.48Z" transform="translate(-2 -5.36)"/></svg>